<svg  viewBox="0 0 106 76" fill="none" xmlns="http://www.w3.org/2000/svg">
<path d="M97.4385 12.1125H80.2389L69.9447 2.4225C69.9447 2.4225 69.8938 2.375 69.8683 2.375L69.8173 2.3275C68.2885 0.902501 66.2245 0 63.8803 0H42.4764C39.9793 0 37.7625 0.9975 36.2082 2.58875V2.6125L26.1433 12.1125H8.56154C3.82211 12.1125 0 15.58 0 19.9975V67.9962C0 72.4137 3.82211 76 8.56154 76H97.4385C102.152 76 106 72.4137 106 67.9962V19.9975C106 15.58 102.152 12.1125 97.4385 12.1125ZM95.8332 24.8188C93.8712 24.8188 92.2659 23.3225 92.2659 21.47C92.2659 19.6175 93.8712 18.1213 95.8332 18.1213C97.7952 18.1213 99.4005 19.6175 99.4005 21.47C99.4005 23.3225 97.7952 24.8188 95.8332 24.8188Z" fill="#804B9D"/>
</svg>
